# xmcd
#
# Track frame offsets:
#	150
#	11623
#	30696
#	48856
#	63296
#	78111
#	96731
#	112549
#	132948
#	147099
#	158572
#	177645
#	195805
#	210245
#	225060
#	243680
#	259498
#	279897
#
# Disc length: 3920 seconds
#
# Revision: 5
# Processed by: cddbd v1.5.2PL0 Copyright (c) Steve Scherf et al.
# Submitted via: audiograbber 1.83.01
#
DISCID=df0f4e12
DTITLE=Various Artist - NM3010
DYEAR=1994
DGENRE=Country
TTITLE0=Jackson, Alan - WWW.Memory
TTITLE1=Womack, Lee Ann - Ashes By Now
TTITLE2=Hill, Faith - There Will Come A Day
TTITLE3=Wills, Mark - I want To Know (Everything there is to know about you)
TTITLE4=Rascal Flatts - This Everyday Love
TTITLE5=Hill, Faith - Let's Make Love
TTITLE6=Montgomery Gentry - All Night Long
TTITLE7=Urban, Keith - But For The Grace Of God
TTITLE8=Worley, Darryl - A Good Day To Run
TTITLE9=Jackson, Alan - WWW.Memory (vocals)
TTITLE10=Womack, Lee Ann - Ashes By Now (vocals)
TTITLE11=Hill, Faith - There Will Come A Day (vocals)
TTITLE12=Wills, Mark - I want To Know (Everything there is to know about you) (
TTITLE12=vocals)
TTITLE13=Rascal Flatts - This Everyday Love (vocals)
TTITLE14=Hill, Faith - Let's Make Love (vocals)
TTITLE15=Montgomery Gentry - All Night Long (vocals)
TTITLE16=Urban, Keith - But For The Grace Of God (vocals)
TTITLE17=Worley, Darryl - A Good Day To Run (vocals)
EXTD=
EXTT0=
EXTT1=
EXTT2=
EXTT3=
EXTT4=
EXTT5=
EXTT6=
EXTT7=
EXTT8=
EXTT9=
EXTT10=
EXTT11=
EXTT12=
EXTT13=
EXTT14=
EXTT15=
EXTT16=
EXTT17=
PLAYORDER=
